<svg width="37" height="36" viewBox="0 0 37 36" fill="none" xmlns="http://www.w3.org/2000/svg"><g clip-path="url(#a)"><path fill-rule="evenodd" clip-rule="evenodd" d="M29.82 23.508a2.062 2.062 0 1 1 0-4.125h3.516a2.85 2.85 0 0 0 1.36-.343v3.108c0 .751-.61 1.36-1.36 1.36zm6.375-6.985v5.625a2.86 2.86 0 0 1-2.86 2.86H29.82a3.562 3.562 0 1 1 0-7.125h3.516c.75 0 1.36-.609 1.36-1.36a.75.75 0 0 1 1.5 0" fill="#101828"/><path fill-rule="evenodd" clip-rule="evenodd" d="M19.7 31.29c0 .413.337.75.75.75h8.667a2.86 2.86 0 0 0 2.86-2.86v-4.922a.75.75 0 0 0-1.5 0v4.922c0 .75-.61 1.36-1.36 1.36h-8.666a.75.75 0 0 0-.75.75m-16.037-.75a1.36 1.36 0 0 1-1.36-1.36V12.008c.405.22.868.344 1.36.344h25.453c.75 0 1.36.608 1.36 1.359v4.922a.75.75 0 1 0 1.5 0V13.71a2.86 2.86 0 0 0-2.86-2.86H3.664a1.36 1.36 0 0 1-1.36-1.359.75.75 0 0 0-1.5 0V29.18a2.86 2.86 0 0 0 2.86 2.86h4.448a.75.75 0 0 0 0-1.5z" fill="#101828"/><path fill-rule="evenodd" clip-rule="evenodd" d="M30.477 18.633c0 .414.335.75.75.75h2.109a2.86 2.86 0 0 0 0-5.719h-2.11a.75.75 0 0 0-.75.75zm1.5-.75v-2.719h1.359a1.36 1.36 0 1 1 0 2.719zM7.906 11.602c0 .414.336.75.75.75h16.875a.75.75 0 0 0 .75-.75V1.055a.75.75 0 0 0-.75-.75H8.656a.75.75 0 0 0-.75.75zm1.5-.75V1.805h15.375v9.047z" fill="#101828"/><path fill-rule="evenodd" clip-rule="evenodd" d="M31.227 14.46a.75.75 0 0 0 .75-.75V9.493a2.86 2.86 0 0 0-2.86-2.86h-3.586a.75.75 0 0 0 0 1.5h3.586c.75 0 1.36.61 1.36 1.36v1.703a2.85 2.85 0 0 0-1.36-.343H3.664a1.36 1.36 0 0 1 0-2.72h4.992a.75.75 0 1 0 0-1.5H3.664a2.86 2.86 0 0 0 0 5.72h25.453c.75 0 1.36.608 1.36 1.359 0 .414.335.75.75.75" fill="#101828"/><path fill-rule="evenodd" clip-rule="evenodd" d="M21.427 1.805h3.354v3.354a4.18 4.18 0 0 1-3.354-3.354m-1.568-.75a5.67 5.67 0 0 0 5.672 5.672.75.75 0 0 0 .75-.75V1.055a.75.75 0 0 0-.75-.75H20.61a.75.75 0 0 0-.75.75M7.906 5.977c0 .414.336.75.75.75a5.67 5.67 0 0 0 5.672-5.672.75.75 0 0 0-.75-.75H8.656a.75.75 0 0 0-.75.75zm1.5-.818V1.805h3.355a4.18 4.18 0 0 1-3.355 3.354" fill="#101828"/><path d="M14.281 35.695a7.781 7.781 0 1 1 0-15.562 7.781 7.781 0 0 1 0 15.562" fill="#009640"/><path fill-rule="evenodd" clip-rule="evenodd" d="M11.908 30.82a.75.75 0 0 0 1.06 0l4.475-4.475a.75.75 0 0 0-1.06-1.06l-3.945 3.944-.961-.961a.75.75 0 1 0-1.061 1.06z" fill="#fff"/></g><defs><clipPath id="a"><path fill="#fff" d="M.5 0h36v36H.5z"/></clipPath></defs></svg>