<svg width="48" height="48" viewBox="0 0 48 48" fill="none" xmlns="http://www.w3.org/2000/svg"><g clip-path="url(#a)"><path fill-rule="evenodd" clip-rule="evenodd" d="M28.531 46.594a1 1 0 0 0 1 1h3.473c2.931-.012 6.515-.191 9.386-1.424 1.455-.625 2.77-1.538 3.72-2.874.953-1.343 1.484-3.04 1.484-5.14 0-3.775-2.23-8.56-5.06-12.835-2.646-3.998-5.948-7.743-8.836-10.05l5.26-10.608c.301-.607-.128-1.11-.505-1.542-.25-.286-.61-.67-1.045-1.056-.816-.726-2.115-1.659-3.564-1.659-1.45 0-2.748.933-3.565 1.66-.244.216-.464.431-.654.63-.19-.199-.41-.414-.654-.63-.817-.727-2.115-1.66-3.565-1.66s-2.748.933-3.565 1.66c-.529.47-1.022.99-1.453 1.552-.102.236-.263.775-.096 1.045l5.253 10.594c-3.877 2.989-8.495 8.51-11.273 14.011a1 1 0 0 0 1.785.901c2.755-5.455 7.412-10.913 11.079-13.606h1.489v.647c0 2.292-.913 4.57-2.52 6.177A1 1 0 0 0 27.52 24.8c.88-.88 1.589-1.917 2.105-3.04a10.5 10.5 0 0 0 2.105 3.04 1 1 0 1 0 1.415-1.414c-1.607-1.606-2.52-3.885-2.52-6.177v-.648h1.479c2.744 2.099 6.08 5.81 8.763 9.863 2.792 4.217 4.727 8.58 4.727 11.731 0 1.748-.436 3.026-1.115 3.982-.684.964-1.668 1.675-2.878 2.194-2.46 1.056-5.673 1.25-8.603 1.262H29.53a1 1 0 0 0-1 1m3.286-32.031 5.06-10.205a10 10 0 0 0-.797-.798c-.765-.68-1.577-1.154-2.236-1.154s-1.471.474-2.236 1.154a9 9 0 0 0-1.183 1.26 1.01 1.01 0 0 1-1.6-.001 9 9 0 0 0-1.183-1.26c-.765-.68-1.576-1.153-2.236-1.153s-1.47.474-2.236 1.154a10 10 0 0 0-.797.798l5.06 10.205z" fill="#101828"/><path d="M1.406 47.594a1 1 0 0 1-1-1V29.719a1 1 0 0 1 1-1h28.219a1 1 0 0 1 1 1v16.875a1 1 0 0 1-1 1z" fill="url(#b)"/><path fill-rule="evenodd" clip-rule="evenodd" d="M11.75 38.156a3.813 3.813 0 1 0 7.625 0 3.813 3.813 0 0 0-7.625 0m3.813 1.813a1.813 1.813 0 1 1 0-3.625 1.813 1.813 0 0 1 0 3.625" fill="#fff"/><path d="M7.125 39.563a1.406 1.406 0 1 0 0-2.813 1.406 1.406 0 0 0 0 2.813m16.875 0a1.406 1.406 0 1 0 0-2.813 1.406 1.406 0 0 0 0 2.813" fill="#fff"/></g><defs><linearGradient id="b" x1="15.516" y1="28.719" x2="15.516" y2="47.594" gradientUnits="userSpaceOnUse"><stop stop-color="#FF5A22"/><stop offset="1" stop-color="#FFA722"/></linearGradient><clipPath id="a"><path fill="#fff" d="M0 0h48v48H0z"/></clipPath></defs></svg>