<svg width="1em" height="1em" viewBox="0 0 20 20" fill="none" xmlns="http://www.w3.org/2000/svg"><path d="m8.525 12.275-2.45-2.45a.75.75 0 0 0-.55-.225q-.325 0-.55.225a.8.8 0 0 0-.25.588q0 .337.225.562L8 14.025a.7.7 0 0 0 .525.2.7.7 0 0 0 .525-.2l6-6a.75.75 0 0 0 .225-.55.8.8 0 0 0-.25-.575.76.76 0 0 0-.562-.225.8.8 0 0 0-.588.25zM10 20q-2.125 0-3.95-.762a9.8 9.8 0 0 1-3.175-2.113A9.8 9.8 0 0 1 .763 13.95Q0 12.125 0 10q0-2.1.763-3.925A9.8 9.8 0 0 1 2.875 2.9Q4.225 1.55 6.05.775T10 0q2.1 0 3.925.775A9.9 9.9 0 0 1 17.1 2.9q1.35 1.35 2.125 3.175T20 10q0 2.125-.775 3.95a9.9 9.9 0 0 1-2.125 3.175q-1.35 1.35-3.175 2.113T10 20" fill="url(#a)"/><defs><linearGradient id="a" x1="10" y1="0" x2="10" y2="20" gradientUnits="userSpaceOnUse"><stop stop-color="#FF5A22"/><stop offset="1" stop-color="#FFA722"/></linearGradient></defs></svg>