<svg width="40" height="40" viewBox="0 0 40 40" fill="none" xmlns="http://www.w3.org/2000/svg"><g clip-path="url(#a)" stroke-width="2" stroke-miterlimit="10" stroke-linecap="round" stroke-linejoin="round"><path d="M27.352 23.438h5.93a5.469 5.469 0 1 0-.943-10.854A8.594 8.594 0 0 0 16.635 5.72a7.031 7.031 0 0 0-10.698 5.998c0 .283.022.56.054.835a5.466 5.466 0 0 0 .728 10.884h5.929" stroke="#101828"/><path d="M7.997 16.69a7 7 0 0 1-2.06-4.971m27.344.781c-1.51 0-2.877.612-3.867 1.602" stroke="#101828"/><path d="M20 32.578a3.125 3.125 0 1 1 0-6.25 3.125 3.125 0 0 1 0 6.25m7.813-3.125c0-.582-.07-1.148-.19-1.695l1.668-.963-2.344-4.06-1.673.967a7.8 7.8 0 0 0-2.93-1.703v-1.92h-4.688v1.92a7.8 7.8 0 0 0-2.93 1.703l-1.673-.966-2.344 4.06 1.668.962a7.8 7.8 0 0 0-.19 1.695c0 .583.07 1.149.19 1.695l-1.668.963 2.344 4.06 1.673-.966a7.8 7.8 0 0 0 2.93 1.702v1.921h4.688v-1.921a7.8 7.8 0 0 0 2.93-1.702l1.673.965 2.344-4.06-1.668-.962a7.8 7.8 0 0 0 .19-1.695" fill="#009640" stroke="#009640"/></g><defs><clipPath id="a"><path fill="#fff" d="M0 0h40v40H0z"/></clipPath></defs></svg>