<svg width="36" height="36" viewBox="0 0 36 36" fill="none" xmlns="http://www.w3.org/2000/svg"><g clip-path="url(#a)"><path fill-rule="evenodd" clip-rule="evenodd" d="M4.18 22.89c4.51 4.511 11.467 5.084 16.6 1.719a.75.75 0 1 0-.823-1.255c-4.55 2.983-10.718 2.474-14.716-1.524C.659 17.249.659 9.822 5.24 5.24 9.82.66 17.249.66 21.83 5.24c3.999 4 4.507 10.168 1.524 14.718a.75.75 0 1 0 1.255.822c3.364-5.132 2.793-12.088-1.719-16.6-5.166-5.167-13.543-5.167-18.71 0s-5.167 13.543 0 18.71" fill="#101828"/><path fill-rule="evenodd" clip-rule="evenodd" d="M7.245 19.775a.75.75 0 0 0 .808.167l8.235-3.284a.75.75 0 0 0 .419-.42l3.284-8.234a.75.75 0 0 0-.975-.975l-8.234 3.284a.75.75 0 0 0-.42.42L7.08 18.966a.75.75 0 0 0 .166.808m1.873-1.873 2.518-6.315 6.315-2.518-2.518 6.315zm4.416-13.749a.75.75 0 0 0 .75-.75V1.055a.75.75 0 0 0-1.5 0v2.347c0 .414.336.75.75.75m9.384 9.383c0 .414.336.75.75.75h2.347a.75.75 0 0 0 0-1.5h-2.347a.75.75 0 0 0-.75.75m-22.614 0c0 .414.335.75.75.75h2.347a.75.75 0 0 0 0-1.5H1.055a.75.75 0 0 0-.75.75m13.23 13.231a.75.75 0 0 0 .75-.75v-2.347a.75.75 0 0 0-1.5 0v2.347c0 .414.336.75.75.75" fill="#101828"/><path d="m34.945 23.155-4.866 2.938 2.876 3.686a2.263 2.263 0 0 1-3.176 3.177l-3.686-2.877-2.939 4.866-4.017-15.807z" fill="#009640"/><path fill-rule="evenodd" clip-rule="evenodd" d="M23.045 35.687a.75.75 0 0 0 .752-.354l2.501-4.142 3.02 2.356a3.013 3.013 0 0 0 4.23-4.229h-.001l-2.356-3.02 4.142-2.501a.75.75 0 0 0-.203-1.37l-15.81-4.015a.75.75 0 0 0-.911.912l4.018 15.807a.75.75 0 0 0 .616.557m.395-2.665-3.266-12.847 12.848 3.265-3.33 2.011a.75.75 0 0 0-.204 1.104l2.876 3.686a1.513 1.513 0 0 1-2.124 2.123l-3.685-2.876a.75.75 0 0 0-1.104.204z" fill="#009640"/></g><defs><clipPath id="a"><path fill="#fff" d="M0 0h36v36H0z"/></clipPath></defs></svg>