<svg width="24" height="24" viewBox="0 0 24 24" fill="none" xmlns="http://www.w3.org/2000/svg"><mask id="a" style="mask-type:luminance" maskUnits="userSpaceOnUse" x="0" y="3" width="24" height="18"><path d="M0 3h24v18H0z" fill="#fff"/></mask><g mask="url(#a)"><path fill-rule="evenodd" clip-rule="evenodd" d="M0 3v18h24V3z" fill="#EAAA08"/><mask id="b" style="mask-type:luminance" maskUnits="userSpaceOnUse" x="0" y="3" width="24" height="18"><path fill-rule="evenodd" clip-rule="evenodd" d="M0 3v18h24V3z" fill="#fff"/></mask><g mask="url(#b)"><path fill-rule="evenodd" clip-rule="evenodd" d="M0 3v4.5h24V3zm0 13.5V21h24v-4.5z" fill="#B42318"/><path d="M3.756 10.704h.84v4.368h-.84z" fill="#F2F4F7"/><path fill-rule="evenodd" clip-rule="evenodd" d="M4.932 9.948H3.42v.42h.252v.336H4.68v-.336h.252zm-.252 5.376h.252v.42H3.42v-.42h.252v-.336H4.68z" fill="#FEEE95"/><path fill-rule="evenodd" clip-rule="evenodd" d="M4.176 10.032c.183 0 .202-.069.309-.172.084-.08.279-.178.279-.29 0-.255-.263-.462-.588-.462s-.588.207-.588.462c0 .125.135.207.236.29.107.088.185.172.352.172" fill="#B42318"/><path fill-rule="evenodd" clip-rule="evenodd" d="M3.42 15.744h1.512v.672s-.19-.084-.378-.084c-.19 0-.378.084-.378.084s-.19-.084-.378-.084c-.19 0-.378.084-.378.084z" fill="#0B70FE"/><mask id="c" style="mask-type:luminance" maskUnits="userSpaceOnUse" x="3" y="15" width="2" height="2"><path fill-rule="evenodd" clip-rule="evenodd" d="M3.42 15.744h1.512v.672s-.19-.084-.378-.084c-.19 0-.378.084-.378.084s-.19-.084-.378-.084c-.19 0-.378.084-.378.084z" fill="#fff"/></mask><g mask="url(#c)"><path d="m3.407 16.284-.033-.08a1 1 0 0 1 .409-.092c.089 0 .135.013.213.048a.4.4 0 0 0 .18.04.4.4 0 0 0 .18-.04.45.45 0 0 1 .214-.048q.204 0 .41.092l-.034.08a.9.9 0 0 0-.376-.084.4.4 0 0 0-.18.04.45.45 0 0 1-.214.048.44.44 0 0 1-.213-.047.4.4 0 0 0-.18-.04.9.9 0 0 0-.376.083m0-.252-.033-.08a1 1 0 0 1 .409-.092c.089 0 .135.013.213.048a.4.4 0 0 0 .18.04.4.4 0 0 0 .18-.04.45.45 0 0 1 .214-.048q.204 0 .41.092l-.034.08a.9.9 0 0 0-.376-.084.4.4 0 0 0-.18.04.45.45 0 0 1-.214.048.44.44 0 0 1-.213-.047.4.4 0 0 0-.18-.04.9.9 0 0 0-.376.083" fill="#fff"/></g><path d="M11.988 10.704h.84v4.368h-.84z" fill="#F2F4F7"/><path fill-rule="evenodd" clip-rule="evenodd" d="M13.164 9.948h-1.512v.42h.252v.336h1.008v-.336h.252zm-.252 5.376h.252v.42h-1.512v-.42h.252v-.336h1.008z" fill="#FEEE95"/><path fill-rule="evenodd" clip-rule="evenodd" d="M12.408 10.032c.183 0 .201-.069.31-.172.083-.08.278-.178.278-.29 0-.255-.263-.462-.588-.462s-.588.207-.588.462c0 .125.135.207.236.29.107.088.186.172.352.172" fill="#B42318"/><path fill-rule="evenodd" clip-rule="evenodd" d="M11.652 15.744h1.512v.672s-.189-.084-.378-.084-.378.084-.378.084-.189-.084-.378-.084-.378.084-.378.084z" fill="#0B70FE"/><mask id="d" style="mask-type:luminance" maskUnits="userSpaceOnUse" x="11" y="15" width="3" height="2"><path fill-rule="evenodd" clip-rule="evenodd" d="M11.652 15.744h1.512v.672s-.189-.084-.378-.084-.378.084-.378.084-.189-.084-.378-.084-.378.084-.378.084z" fill="#fff"/></mask><g mask="url(#d)"><path d="m11.639 16.284-.033-.08a1 1 0 0 1 .41-.092.44.44 0 0 1 .212.048.4.4 0 0 0 .18.04.4.4 0 0 0 .18-.04.45.45 0 0 1 .214-.048q.204 0 .41.092l-.034.08a.9.9 0 0 0-.376-.084.4.4 0 0 0-.18.04.45.45 0 0 1-.214.048.44.44 0 0 1-.213-.047.4.4 0 0 0-.18-.04.9.9 0 0 0-.376.083m0-.252-.033-.08a1 1 0 0 1 .41-.092.44.44 0 0 1 .212.048.4.4 0 0 0 .18.04.4.4 0 0 0 .18-.04.45.45 0 0 1 .214-.048q.204 0 .41.092l-.034.08a.9.9 0 0 0-.376-.084.4.4 0 0 0-.18.04.45.45 0 0 1-.214.048.44.44 0 0 1-.213-.047.4.4 0 0 0-.18-.04.9.9 0 0 0-.376.083" fill="#fff"/></g><path fill-rule="evenodd" clip-rule="evenodd" d="M3.74 14.76c.152-.184.237-.351.237-.528a.47.47 0 0 0-.091-.287l.01-.005c-.001 0 .165-.072.224-.1q.155-.074.296-.174c.06-.044.139-.09.26-.155l.113-.06.031-.018c.059-.03.103-.054.143-.079a.9.9 0 0 0 .276-.215.4.4 0 0 0-.093-.599c-.105-.071-.245-.112-.451-.144l-.043-.006-.517-.083c.516-.086 1.253-.054 1.578.113l.307-.597c-.66-.341-2.167-.307-2.73.081-.412.284-.356.714.073.899.18.077.413.128.846.197a2 2 0 0 0-.188.122 1.2 1.2 0 0 1-.192.113l-.187.083-.025.01c-.35.16-.52.379-.469.777l.028.215.049.015zm-.431-.555-.002.002zm9.22.027c0 .177.085.345.237.528l.516-.425.048-.015.028-.216c.05-.397-.12-.617-.469-.776l-.024-.01-.187-.084a1.2 1.2 0 0 1-.192-.112 2 2 0 0 0-.19-.121c.434-.07.668-.12.847-.198.43-.185.485-.616.072-.899-.563-.388-2.069-.422-2.73-.081l.309.597c.325-.167 1.062-.199 1.578-.113l-.518.083-.042.006c-.207.032-.348.073-.451.144a.4.4 0 0 0-.093.599.9.9 0 0 0 .275.216c.04.024.084.047.143.078l.031.017.114.06c.12.066.2.112.26.156.093.067.187.122.296.174.058.027.225.1.224.1l.01.005a.48.48 0 0 0-.092.287" fill="#B42318"/><path d="m4.442 12.3.249.051v.37c-.264.21-.935.566-.935.566V12.3zm7.794 0-.248.051v.37c.264.21.935.566.935.566V12.3z" fill="#F2F4F7"/><path fill-rule="evenodd" clip-rule="evenodd" d="M11.082 8.404v-.123q-.649-.465-1.357-.465a2.7 2.7 0 0 0-1.377-.234V7.58c-.697-.067-1.401.236-1.401.236-.71 0-1.358.465-1.358.465v.123l.848.851s.238.819 1.908.627v.002s1.106-.03 1.183-.056l.096-.03c.217-.062.464-.134.61-.543zm-2.737-.783c-.024.282-.162 1.99 0 2.255z" fill="#B42318"/><path fill-rule="evenodd" clip-rule="evenodd" d="M6.235 9.112V9.11l-.595-.56.058-.061.558.525.015-.065q.097.025.197.023v-.114l.124.068q.092.05.263.022c.085-.013.142-.111.16-.32l.038-.422.127.405c.057.182.144.262.268.262.12 0 .17-.043.175-.156l.015-.317.144.284c.052.102.123.148.225.148.145 0 .241-.12.241-.31h.171c0 .19.097.31.242.31.102 0 .172-.046.225-.148l.143-.284.015.317c.006.113.055.157.176.157.124 0 .211-.08.268-.264l.126-.405.038.423c.018.209.075.308.16.321q.173.027.263-.023l.124-.068v.114a.7.7 0 0 0 .198-.022l.026.122.62-.583.057.061-.77.725c-.113.207-.17.344-.17.401 0 .086-.225.138-.664.19-.345.042-.751.07-1.084.074h-.084q-.544-.008-1.084-.074c-.44-.052-.665-.104-.665-.19a.2.2 0 0 0-.006-.04.7.7 0 0 1-.096-.233l-.067-.128-.17-.162h-.004m4.13.014c-.138.024-.238.022-.29-.021a.7.7 0 0 1-.29.007c-.118-.018-.2-.097-.25-.227a.4.4 0 0 1-.243.15c.537.075.914.183.914.183s-.01.08-.032.173l.085-.163.008-.01zm-1.327-.123a.27.27 0 0 1-.11-.1.4.4 0 0 1-.137.077q.127.01.247.023m-.544-.04a.4.4 0 0 1-.16-.14.4.4 0 0 1-.16.14l.116-.003h.068q.069 0 .136.003m-2.028.248-.078-.073q.142.015.205-.033.125.036.29.007c.117-.018.2-.097.249-.227.057.077.141.13.235.148a8 8 0 0 0-.9.178m1.407-.233q-.12.009-.238.022a.27.27 0 0 0 .105-.098q.06.052.133.076m2.067.698c.059.027.105 0 .143-.053l-.006.04-.023.011a1 1 0 0 1-.124.036 5 5 0 0 1-.444.071c-.356.043-.78.072-1.116.073a11 11 0 0 1-1.116-.073 5 5 0 0 1-.444-.07 1 1 0 0 1-.11-.03l.009-.005c.183-.086 1.397-.167 1.615-.18.218.013 1.433.094 1.616.18" fill="#FEEE95"/><path fill-rule="evenodd" clip-rule="evenodd" d="M8.17 8.248a.3.3 0 0 0 .025.076.3.3 0 0 0-.113-.02c-.116 0-.21.057-.21.126 0 .07.094.126.21.126s.21-.056.21-.126c0 .07.095.126.21.126.116 0 .21-.056.21-.126 0-.069-.094-.126-.21-.126a.3.3 0 0 0-.082.01.3.3 0 0 0-.002-.114c-.022-.114-.096-.195-.164-.183-.068.014-.105.117-.083.23m-1.235.16a.3.3 0 0 1-.024-.076c-.023-.114.015-.218.083-.23.068-.014.142.067.164.182a.3.3 0 0 1 .002.114.3.3 0 0 1 .082-.01c.116 0 .21.057.21.126 0 .07-.094.126-.21.126s-.21-.056-.21-.126c0 .07-.094.126-.21.126s-.21-.056-.21-.126c0-.069.094-.126.21-.126a.3.3 0 0 1 .113.02m2.63.077c-.01.069-.11.111-.224.095-.116-.016-.2-.085-.192-.154.01-.069.111-.112.226-.095a.3.3 0 0 1 .109.034.3.3 0 0 1-.014-.078c-.006-.116.045-.213.115-.216s.131.087.137.202a.3.3 0 0 1-.014.115.3.3 0 0 1 .083.001c.115.016.2.085.19.154-.009.07-.11.112-.225.095-.115-.015-.2-.084-.19-.153m.8.333c.103.054.212.048.245-.013l.002-.003q.015.015.035.022c.068.02.149-.052.182-.164.034-.11.008-.217-.059-.238s-.148.054-.181.165a.3.3 0 0 0-.015.078.3.3 0 0 0-.09-.07c-.102-.054-.212-.048-.245.013-.032.061.024.156.126.21m-4.121.026c-.103.054-.212.049-.245-.013L6 8.826a.1.1 0 0 1-.036.023c-.067.02-.148-.053-.182-.164-.034-.11-.008-.217.06-.237.066-.02.147.052.181.163a.3.3 0 0 1 .014.079.3.3 0 0 1 .09-.07c.103-.055.213-.049.245.013.033.061-.024.155-.126.21M8.24 6.058h.175v.11h.115v.175h-.115v.35h.115v.175h-.406v-.175h.116v-.35h-.116v-.175h.116z" fill="#FEEE95"/><path d="M8.208 7.008h.336V8.1h-.336zm-2.463 1.27-.158.056c-.165-.469-.118-.787.163-.924q.37-.18 1.085-.15l-.008.167q-.675-.026-1.003.134c-.185.09-.219.32-.08.717" fill="#FEEE95"/><path d="M7.597 7.08c-.384 0-.542.092-.632.369-.058.176-.002.326.179.466l-.103.133c-.234-.181-.317-.404-.236-.652.115-.352.34-.485.792-.485q.445 0 .687.236l.025.024v.81h-.168v-.737q-.187-.165-.544-.165m3.353 1.283.158.056c.165-.469.117-.787-.163-.924q-.372-.18-1.085-.15l.007.167q.676-.026 1.004.134c.185.09.219.32.078.717z" fill="#FEEE95"/><path d="M9.088 7.092c.384 0 .542.094.632.37.058.176.001.326-.18.466l.104.133c.234-.182.317-.404.236-.651-.115-.353-.34-.486-.792-.486q-.445 0-.687.236l-.025.025v.81h.168v-.739q.187-.164.544-.164" fill="#FEEE95"/><path opacity=".3" fill-rule="evenodd" clip-rule="evenodd" d="M5.604 9.948h5.46v4.905s-.405 1.647-2.73 1.647-2.73-1.69-2.73-1.69z" fill="#D0D5DD"/><mask id="e" style="mask-type:luminance" maskUnits="userSpaceOnUse" x="5" y="9" width="7" height="8"><path fill-rule="evenodd" clip-rule="evenodd" d="M5.604 9.948h5.46v4.905s-.405 1.647-2.73 1.647-2.73-1.69-2.73-1.69z" fill="#fff"/></mask><g mask="url(#e)"><path d="M5.604 12.972h2.772v3.276H5.604z" fill="#FEEE95"/><path d="M5.94 13.14h.336v3.108H5.94zm1.176 0h.336v3.108h-.336zm-.588 0h.336v3.108h-.336zm1.176 0h.336v3.108h-.336zm-2.1-3.276h2.772v3.192H5.604z" fill="#B42318"/><path d="M8.292 12.888h2.772v3.192H8.292z" fill="#B42318"/><path d="M8.292 9.948h2.94v3.108h-2.94z" fill="#F2F4F7"/><path fill-rule="evenodd" clip-rule="evenodd" d="M10.77 15.105v-1.839h-2.1v1.824l.004.014c.105.453.468.682 1.046.682.577 0 .94-.223 1.046-.666zm-1.05.429c-.464 0-.718-.156-.798-.474v-1.542h1.596v1.556c-.08.308-.334.46-.798.46" fill="#FEEE95"/><path fill-rule="evenodd" clip-rule="evenodd" d="M9.807 13.42h-.175v.834l-.69-.75-.123.112.623.68h-.565v.251h.58l-.638.694.123.114.69-.75v.974h.175v-.887l.61.663.123-.114-.638-.694h.712v-.252h-.698l.624-.678-.124-.114-.609.663z" fill="#FEEE95"/><path fill-rule="evenodd" clip-rule="evenodd" d="M10.112 16.082s-1.779.14-1.779-1.008c0 0-.017 1.008-1.875 1.008v.906h3.654z" fill="#F2F4F7"/><path fill-rule="evenodd" clip-rule="evenodd" d="M8.334 13.644c.348 0 .63-.3.63-.672 0-.371-.282-.672-.63-.672s-.63.3-.63.672c0 .371.282.672.63.672Z" fill="#0B70FE" stroke="#B42318" stroke-width="1.167"/></g></g></g></svg>