<svg width="37" height="36" viewBox="0 0 37 36" fill="none" xmlns="http://www.w3.org/2000/svg"><g clip-path="url(#a)"><path fill-rule="evenodd" clip-rule="evenodd" d="M24.852 32.766a2.86 2.86 0 1 0 5.718 0 2.86 2.86 0 0 0-5.718 0m2.859 1.359a1.36 1.36 0 1 1 0-2.719 1.36 1.36 0 0 1 0 2.719m-14.063 0a1.36 1.36 0 1 1 0-2.719 1.36 1.36 0 0 1 0 2.719m-2.859-1.36a2.86 2.86 0 1 0 5.719 0 2.86 2.86 0 0 0-5.719 0" fill="#101828"/><path fill-rule="evenodd" clip-rule="evenodd" d="M12.242 29.906a1.36 1.36 0 0 1-1.36-1.36v-1.358h20.345a.75.75 0 0 0 0-1.5H10.133a.75.75 0 0 0-.75.75v2.109a2.86 2.86 0 0 0 2.86 2.86h18.984a.75.75 0 1 0 0-1.5zM7.977 18c0 .414.335.75.75.75h25.312a.75.75 0 0 0 0-1.5H8.727a.75.75 0 0 0-.75.75m.703 4.219c0 .414.335.75.75.75h23.203a.75.75 0 0 0 0-1.5H9.43a.75.75 0 0 0-.75.75" fill="#101828"/><path fill-rule="evenodd" clip-rule="evenodd" d="M10.256 27.177a.75.75 0 0 0 .617-.863L7.885 8.39A2.86 2.86 0 0 0 5.065 6h-3.51a.75.75 0 1 0 0 1.5h3.51a1.36 1.36 0 0 1 1.34 1.137L9.394 26.56a.75.75 0 0 0 .863.616m5.149.012a.75.75 0 0 0 .75-.75V13.78a.75.75 0 1 0-1.5 0v12.657c0 .414.336.75.75.75m5.274.001a.75.75 0 0 0 .75-.75V13.78a.75.75 0 0 0-1.5 0v12.657c0 .414.335.75.75.75" fill="#101828"/><path fill-rule="evenodd" clip-rule="evenodd" d="M9.393 26.56a.75.75 0 0 0 .74.628h21.094a.75.75 0 0 0 .711-.513l4.219-12.657a.75.75 0 0 0-.712-.987h-2.812a.75.75 0 0 0 0 1.5h1.772l-3.719 11.157H10.768L8.908 14.53h15.287a.75.75 0 1 0 0-1.5H8.023a.75.75 0 0 0-.74.874z" fill="#101828"/><path fill-rule="evenodd" clip-rule="evenodd" d="M25.953 27.188a.75.75 0 0 0 .75-.75V14.744a.75.75 0 0 0-1.5 0v11.694c0 .414.336.75.75.75" fill="#101828"/><path d="M28.414 15.938a7.781 7.781 0 1 1 0-15.563 7.781 7.781 0 0 1 0 15.563" fill="#009640"/><path fill-rule="evenodd" clip-rule="evenodd" d="M26.89 11.026a.75.75 0 0 0 1.06 0l3.977-3.977a.75.75 0 1 0-1.06-1.06l-3.448 3.446-1.458-1.458a.75.75 0 0 0-1.06 1.06z" fill="#fff"/></g><defs><clipPath id="a"><path fill="#fff" d="M.5 0h36v36H.5z"/></clipPath></defs></svg>