<svg width="40" height="40" viewBox="0 0 40 40" fill="none" xmlns="http://www.w3.org/2000/svg"><g clip-path="url(#a)" stroke-width="2" stroke-miterlimit="10" stroke-linecap="round" stroke-linejoin="round"><path d="M20 14.531a3.125 3.125 0 0 0-3.125 3.125v1.563a3.125 3.125 0 1 0 6.25 0v-1.563c0-1.726-1.4-3.125-3.125-3.125" fill="#009640" stroke="#009640"/><path d="M26.25 27.031v.963L20 30l-6.25-2.006v-.963a4.687 4.687 0 0 1 4.688-4.687h3.125a4.687 4.687 0 0 1 4.687 4.687" fill="#009640" stroke="#009640"/><path d="M30.156 20c0 5.61-4.547 10.156-10.156 10.156S9.844 25.61 9.844 20 14.39 9.844 20 9.844 30.156 14.39 30.156 20" stroke="#101828"/><path d="m33.759 12.62 3.423-.667 1.449 4.458-3.162 1.472-.004.002c.094.693.16 1.396.16 2.115s-.066 1.422-.16 2.115l.004.002 3.162 1.472-1.449 4.458-3.423-.667.012.002a15.7 15.7 0 0 1-2.5 3.423h0l1.692 3.05-3.792 2.755-2.378-2.553-.002-.002a15.5 15.5 0 0 1-4.024 1.31l-.423 3.463h-4.688l-.423-3.462a15.5 15.5 0 0 1-4.024-1.31l-.002.002-2.378 2.552-3.792-2.755 1.693-3.05h0a15.7 15.7 0 0 1-2.5-3.423l.011-.002-3.423.667-1.449-4.458 3.162-1.472.004-.002A16 16 0 0 1 4.375 20c0-.72.066-1.422.16-2.115l-.004-.002-3.162-1.472 1.449-4.458 3.423.667-.012-.002a15.7 15.7 0 0 1 2.5-3.423h0l-1.692-3.05 3.792-2.755 2.377 2.552.003.003a15.5 15.5 0 0 1 4.024-1.31l.423-3.463h4.688l.423 3.462a15.5 15.5 0 0 1 4.024 1.31l.002-.002 2.378-2.552 3.792 2.755-1.693 3.05h0a15.7 15.7 0 0 1 2.5 3.423z" stroke="#101828"/></g><defs><clipPath id="a"><path fill="#fff" d="M0 0h40v40H0z"/></clipPath></defs></svg>