<svg width="37" height="36" viewBox="0 0 37 36" fill="none" xmlns="http://www.w3.org/2000/svg"><g clip-path="url(#a)"><path fill-rule="evenodd" clip-rule="evenodd" d="M.805 30.727c0 .414.335.75.75.75h33.89a.75.75 0 0 0 .75-.75V8.13a.75.75 0 0 0-.75-.75H27.77a.75.75 0 0 0 0 1.5h6.926v21.097H2.305V8.88H9.23a.75.75 0 1 0 0-1.5H1.555a.75.75 0 0 0-.75.75z" fill="#101828"/><path fill-rule="evenodd" clip-rule="evenodd" d="M14.293 34.945c0 .414.336.75.75.75h6.914a.75.75 0 0 0 .75-.75v-4.218a.75.75 0 0 0-.75-.75h-6.914a.75.75 0 0 0-.75.75zm1.5-.75v-2.718h5.414v2.718z" fill="#101828"/><path fill-rule="evenodd" clip-rule="evenodd" d="M9.102 34.945c0 .414.335.75.75.75H18.5a.75.75 0 0 0 0-1.5H9.852a.75.75 0 0 0-.75.75" fill="#101828"/><path fill-rule="evenodd" clip-rule="evenodd" d="M17.75 34.945c0 .414.336.75.75.75h8.648a.75.75 0 0 0 0-1.5H18.5a.75.75 0 0 0-.75.75" fill="#101828"/><path d="M27.769 1.055V16.65h-3.63c-.67 0-1.303.31-1.715.838l-3.924 5.04-3.924-5.04a2.17 2.17 0 0 0-1.714-.838h-3.63V1.055z" fill="#009640"/><path fill-rule="evenodd" clip-rule="evenodd" d="M18.5 23.28a.75.75 0 0 0 .592-.29l3.924-5.04c.27-.346.684-.549 1.122-.549h3.63a.75.75 0 0 0 .75-.75V1.055a.75.75 0 0 0-.75-.75H9.232a.75.75 0 0 0-.75.75V16.65c0 .415.336.75.75.75h3.63c.44 0 .853.203 1.123.549l3.924 5.04a.75.75 0 0 0 .592.29m0-1.971-3.333-4.28a2.92 2.92 0 0 0-2.305-1.128h-2.88V1.805H27.02V15.9h-2.88c-.902 0-1.753.416-2.306 1.127z" fill="#009640"/><path fill-rule="evenodd" clip-rule="evenodd" d="M12.361 12.842c0 .414.336.75.75.75H23.89a.75.75 0 1 0 0-1.5H13.111a.75.75 0 0 0-.75.75" fill="#fff"/><path d="M22.79 12.842v-1.956a4.29 4.29 0 1 0-8.58 0v1.956" fill="#fff"/><path fill-rule="evenodd" clip-rule="evenodd" d="M14.21 13.592a.75.75 0 0 0 .75-.75v-1.956a3.54 3.54 0 1 1 7.08 0v1.956a.75.75 0 1 0 1.5 0v-1.956a5.04 5.04 0 1 0-10.08 0v1.956c0 .414.335.75.75.75" fill="#fff"/><path fill-rule="evenodd" clip-rule="evenodd" d="M18.5 7.345a.75.75 0 0 0 .75-.75V4.864a.75.75 0 1 0-1.5 0v1.731c0 .414.336.75.75.75" fill="#fff"/><path fill-rule="evenodd" clip-rule="evenodd" d="M.805 26.508c0 .414.335.75.75.75h33.89a.75.75 0 0 0 0-1.5H1.555a.75.75 0 0 0-.75.75" fill="#101828"/></g><defs><clipPath id="a"><path fill="#fff" d="M.5 0h36v36H.5z"/></clipPath></defs></svg>