<svg width="24" height="24" viewBox="0 0 24 24" fill="none" xmlns="http://www.w3.org/2000/svg"><g clip-path="url(#a)"><path fill-rule="evenodd" clip-rule="evenodd" d="M17.082 22.734c-8.72 0-15.816-7.095-15.816-15.816V5.812c0-.462.38-.843.843-.843h4.064l.913 5.093-1.752 1.492a.56.56 0 0 0-.149.657 13.1 13.1 0 0 0 6.606 6.605.56.56 0 0 0 .658-.15l1.49-1.752 5.092.913v4.064a.85.85 0 0 1-.843.843zM.14 6.918c0 9.342 7.6 16.942 16.94 16.942h1.107a1.973 1.973 0 0 0 1.968-1.968v-4.534a.56.56 0 0 0-.463-.554L13.82 15.75a.56.56 0 0 0-.528.189l-1.422 1.672a11.97 11.97 0 0 1-5.48-5.48l1.672-1.422a.56.56 0 0 0 .189-.528L7.197 4.307a.56.56 0 0 0-.554-.463H2.11A1.973 1.973 0 0 0 .141 5.812z" fill="#344054"/><path d="M21.89.703H12a1.41 1.41 0 0 0-1.406 1.406v7.078A1.41 1.41 0 0 0 12 10.594h3.539l1.406 1.875 1.407-1.875h3.538a1.41 1.41 0 0 0 1.407-1.407V2.11A1.41 1.41 0 0 0 21.89.703" fill="url(#b)"/><path fill-rule="evenodd" clip-rule="evenodd" d="M16.945 13.031a.56.56 0 0 0 .45-.225l1.238-1.65h3.258a1.973 1.973 0 0 0 1.968-1.969V2.11A1.973 1.973 0 0 0 21.89.141H12a1.973 1.973 0 0 0-1.969 1.968v7.078c0 1.085.885 1.97 1.969 1.97h3.258l1.237 1.65a.56.56 0 0 0 .45.224m0-1.5-.956-1.275a.56.56 0 0 0-.45-.225h-3.54a.85.85 0 0 1-.843-.844V2.11c0-.462.381-.843.844-.843h9.89c.463 0 .844.38.844.843v7.078a.85.85 0 0 1-.844.844h-3.538a.56.56 0 0 0-.45.225z" fill="url(#c)"/><path fill-rule="evenodd" clip-rule="evenodd" d="M14.625 6a.75.75 0 1 1-1.5 0 .75.75 0 0 1 1.5 0m3 0a.75.75 0 1 1-1.5 0 .75.75 0 0 1 1.5 0m2.25.75a.75.75 0 1 0 0-1.5.75.75 0 0 0 0 1.5" fill="#fff"/></g><defs><linearGradient id="b" x1="16.945" y1="12.469" x2="16.945" y2=".703" gradientUnits="userSpaceOnUse"><stop stop-color="#FF5A22"/><stop offset="1" stop-color="#FFA722"/></linearGradient><linearGradient id="c" x1="16.945" y1="13.031" x2="16.945" y2=".141" gradientUnits="userSpaceOnUse"><stop stop-color="#FF5A22"/><stop offset="1" stop-color="#FFA722"/></linearGradient><clipPath id="a"><path fill="#fff" d="M0 0h24v24H0z"/></clipPath></defs></svg>