<svg width="64" height="64" viewBox="0 0 64 64" fill="none" xmlns="http://www.w3.org/2000/svg"><g clip-path="url(#a)"><path fill-rule="evenodd" clip-rule="evenodd" d="M16.625 23a1.5 1.5 0 0 0 1.5-1.5V10.688c0-4.019 3.294-7.313 7.313-7.313 4.018 0 7.312 3.294 7.312 7.313V21.5a1.5 1.5 0 0 0 3 0V10.688C35.75 5.012 31.113.374 25.438.374c-5.676 0-10.313 4.637-10.313 10.313V21.5a1.5 1.5 0 0 0 1.5 1.5m30.5 39.125a1.5 1.5 0 0 0 1.5 1.5h13.5a1.5 1.5 0 0 0 1.492-1.652l-3.75-36.75a1.5 1.5 0 0 0-1.492-1.348h-12.75a1.5 1.5 0 0 0 0 3H57.02l3.444 33.75H48.625a1.5 1.5 0 0 0-1.5 1.5" fill="#344054"/><path fill-rule="evenodd" clip-rule="evenodd" d="M45.78 40.18a1.5 1.5 0 0 0 1.765 1.176c3.384-.678 5.955-3.678 5.955-7.262v-8.72a1.5 1.5 0 0 0-3 0v8.72c0 2.121-1.53 3.917-3.545 4.32a1.5 1.5 0 0 0-1.176 1.767" fill="#344054"/><path d="M6.622 15.125h37.626c1.587 13.166 3.174 33.833 4.752 47H1.875c1.578-13.167 3.17-33.833 4.747-47" fill="url(#b)"/><path fill-rule="evenodd" clip-rule="evenodd" d="M.753 63.12a1.5 1.5 0 0 0 1.122.505H49a1.5 1.5 0 0 0 1.49-1.678c-.782-6.52-1.567-14.895-2.355-23.308l-.014-.154c-.792-8.452-1.587-16.932-2.384-23.54a1.5 1.5 0 0 0-1.489-1.32H6.622a1.5 1.5 0 0 0-1.49 1.322c-.79 6.598-1.583 15.065-2.374 23.506l-.003.032C1.962 46.95 1.172 55.386.385 61.947a1.5 1.5 0 0 0 .368 1.174m2.808-2.495c.727-6.333 1.455-14.108 2.181-21.86.74-7.907 1.48-15.789 2.213-22.14h34.96c.739 6.35 1.478 14.232 2.219 22.14l.017.185c.72 7.69 1.442 15.393 2.163 21.675z" fill="url(#c)"/><path fill-rule="evenodd" clip-rule="evenodd" d="M18.781 55.112a1.5 1.5 0 0 0 2.05-.55l11.062-19.16a1.5 1.5 0 0 0-2.598-1.5l-11.063 19.16a1.5 1.5 0 0 0 .55 2.05m-5.594-11.396a5.25 5.25 0 1 0-1.921-7.172 5.25 5.25 0 0 0 1.921 7.172m1.5-2.598a2.25 2.25 0 1 1 3.074-.824 2.25 2.25 0 0 1-3.074.824m17.5 12.598a5.25 5.25 0 1 0-1.921-7.172 5.25 5.25 0 0 0 1.921 7.172m1.5-2.598a2.25 2.25 0 1 1 3.074-.824 2.25 2.25 0 0 1-3.074.824" fill="#fff"/></g><defs><linearGradient id="b" x1="25.437" y1="62.125" x2="25.437" y2="15.125" gradientUnits="userSpaceOnUse"><stop stop-color="#FF5A22"/><stop offset="1" stop-color="#FFA722"/></linearGradient><linearGradient id="c" x1="25.437" y1="63.625" x2="25.437" y2="13.625" gradientUnits="userSpaceOnUse"><stop stop-color="#FF5A22"/><stop offset="1" stop-color="#FFA722"/></linearGradient><clipPath id="a"><path fill="#fff" d="M0 0h64v64H0z"/></clipPath></defs></svg>