<svg width="48" height="48" viewBox="0 0 48 48" fill="none" xmlns="http://www.w3.org/2000/svg"><g clip-path="url(#a)"><path fill-rule="evenodd" clip-rule="evenodd" d="M12.75 47.594a1 1 0 0 0 1-1V43.78a1 1 0 0 0-2 0v2.813a1 1 0 0 0 1 1" fill="url(#b)"/><path d="m18.375 40.969 2.813 2.812z" fill="url(#c)"/><path fill-rule="evenodd" clip-rule="evenodd" d="M21.895 44.488a1 1 0 0 0 0-1.414l-2.813-2.812a1 1 0 0 0-1.414 1.414l2.812 2.812a1 1 0 0 0 1.415 0" fill="url(#d)"/><path d="M7.125 40.969 4.313 43.78z" fill="url(#e)"/><path fill-rule="evenodd" clip-rule="evenodd" d="M3.605 44.488a1 1 0 0 0 1.415 0l2.812-2.812a1 1 0 0 0-1.414-1.414l-2.813 2.812a1 1 0 0 0 0 1.414" fill="url(#f)"/><path fill-rule="evenodd" clip-rule="evenodd" d="M35.25 5.219a1 1 0 0 0 1-1V1.406a1 1 0 1 0-2 0V4.22a1 1 0 0 0 1 1m4.918 2.518a1 1 0 0 0 1.414 0l2.813-2.812a1 1 0 0 0-1.415-1.414l-2.812 2.812a1 1 0 0 0 0 1.414m-9.836 0a1 1 0 0 0 0-1.414L27.52 3.512a1 1 0 1 0-1.415 1.414l2.813 2.812a1 1 0 0 0 1.414 0m4.918 32.137a1.813 1.813 0 0 1-1.812-1.812V35.25a1 1 0 0 0-1-1H24a1 1 0 1 0 0 2h7.438v1.813a3.812 3.812 0 1 0 7.625 0V36.25h7.53a1 1 0 0 0 1-1v-8.437a1 1 0 0 0-1-1h-2.812a1.813 1.813 0 0 1 0-3.625h2.813a1 1 0 0 0 1-1V12.75a1 1 0 0 0-1-1h-8.532a1 1 0 0 0-1 1v2.813a1.813 1.813 0 0 1-3.624 0V12.75a1 1 0 0 0-1-1H24a1 1 0 1 0 0 2h7.438v1.813a3.813 3.813 0 0 0 7.625 0V13.75h6.53v6.438h-1.812a3.812 3.812 0 0 0 0 7.625h1.813v6.437h-7.532a1 1 0 0 0-1 1v2.813a1.813 1.813 0 0 1-1.812 1.812" fill="#101828"/><path d="M1.406 36.25a1 1 0 0 1-1-1v-8.437a1 1 0 0 1 1-1H4.22a1.813 1.813 0 0 0 0-3.625H1.406a1 1 0 0 1-1-1V12.75a1 1 0 0 1 1-1h7.532V9.938a3.812 3.812 0 1 1 7.624 0v1.812H24a1 1 0 0 1 1 1v7.438h1.813a3.813 3.813 0 0 1 0 7.625H25v7.437a1 1 0 0 1-1 1h-8.437a1 1 0 0 1-1-1v-2.812a1.813 1.813 0 0 0-3.626 0v2.812a1 1 0 0 1-1 1z" fill="url(#g)"/></g><defs><linearGradient id="b" x1="12.75" y1="47.594" x2="12.75" y2="42.781" gradientUnits="userSpaceOnUse"><stop stop-color="#FF5A22"/><stop offset="1" stop-color="#FFA722"/></linearGradient><linearGradient id="c" x1="19.781" y1="43.781" x2="19.781" y2="40.969" gradientUnits="userSpaceOnUse"><stop stop-color="#FF5A22"/><stop offset="1" stop-color="#FFA722"/></linearGradient><linearGradient id="d" x1="19.781" y1="44.781" x2="19.781" y2="39.969" gradientUnits="userSpaceOnUse"><stop stop-color="#FF5A22"/><stop offset="1" stop-color="#FFA722"/></linearGradient><linearGradient id="e" x1="5.719" y1="43.781" x2="5.719" y2="40.969" gradientUnits="userSpaceOnUse"><stop stop-color="#FF5A22"/><stop offset="1" stop-color="#FFA722"/></linearGradient><linearGradient id="f" x1="5.719" y1="44.781" x2="5.719" y2="39.969" gradientUnits="userSpaceOnUse"><stop stop-color="#FF5A22"/><stop offset="1" stop-color="#FFA722"/></linearGradient><linearGradient id="g" x1="15.516" y1="6.125" x2="15.516" y2="36.25" gradientUnits="userSpaceOnUse"><stop stop-color="#FF5A22"/><stop offset="1" stop-color="#FFA722"/></linearGradient><clipPath id="a"><path fill="#fff" d="M0 0h48v48H0z"/></clipPath></defs></svg>