<svg width="64" height="64" viewBox="0 0 64 64" fill="none" xmlns="http://www.w3.org/2000/svg"><path d="m59.289 48.114 1.48 8.89-8.89-1.48a20.6 20.6 0 0 1-10.465 2.836c-8.05 0-15.027-4.593-18.455-11.301 11.268-.199 20.339-9.394 20.339-20.708 0-3.387-.814-6.586-2.257-9.41q.186-.003.373-.003c11.439 0 20.711 9.272 20.711 20.71 0 3.818-1.033 7.394-2.836 10.466m-8.083-10.465H40.07m11.135 8.235H31.632m19.574-16.47H43.26" stroke="#98A2B3" stroke-width="3" stroke-miterlimit="10" stroke-linecap="round" stroke-linejoin="round"/><path d="M43.298 26.351c0 11.314-9.072 20.509-20.34 20.708q-.185.004-.372.004a20.6 20.6 0 0 1-10.465-2.837l-8.89 1.48 1.48-8.89a20.6 20.6 0 0 1-2.836-10.465c0-11.438 9.273-20.711 20.711-20.711 8.05 0 15.028 4.593 18.455 11.301a20.6 20.6 0 0 1 2.257 9.41" fill="#FF5A22" stroke="#FF5A22" stroke-width="3" stroke-miterlimit="10" stroke-linecap="round" stroke-linejoin="round"/><path d="M17.87 20.464a4.717 4.717 0 1 1 4.716 4.717v5.525" stroke="#fff" stroke-width="3" stroke-miterlimit="10" stroke-linecap="round" stroke-linejoin="round"/><path d="M22.586 38.831c.98 0 1.92-.862 1.875-1.875-.045-1.016-.824-1.875-1.875-1.875-.98 0-1.92.862-1.875 1.875.046 1.016.824 1.875 1.875 1.875" fill="#fff"/></svg>