<svg width="1em" height="1em" viewBox="0 0 24 24" fill="none" xmlns="http://www.w3.org/2000/svg"><g clip-path="url(#a)"><path fill-rule="evenodd" clip-rule="evenodd" d="M7.642.26a.5.5 0 0 1 .516.031l1.94 1.333L11.682.317a.5.5 0 0 1 .636 0l1.584 1.307 1.94-1.333a.5.5 0 0 1 .783.412v.926a5.62 5.62 0 0 1-1.216 3.491 2 2 0 0 1-.221 3.397l3.738 3.972a6.71 6.71 0 0 1-4.885 11.308H9.959a6.71 6.71 0 0 1-4.885-11.308l3.738-3.972a2 2 0 0 1-.221-3.397 5.62 5.62 0 0 1-1.216-3.49V.703a.5.5 0 0 1 .267-.442M9.75 7.75h4.5a1 1 0 0 0 .001-2H9.75a1 1 0 0 0 .001 2m.216 1-4.164 4.425a5.71 5.71 0 0 0 4.157 9.622h4.082a5.71 5.71 0 0 0 4.157-9.622L14.034 8.75zm4.446-4aH9.588a4.62 4.62 0 0 1-1.213-3.096l1.467 1.008a.5.5 0 0 0 .601-.026L12 1.35l1.557 1.285a.5.5 0 0 0 .601.026l1.467-1.008a4.62 4.62 0 0 1-1.213 3.096" fill="#101828"/><path d="M21.474.592a.5.5 0 0 0-.948 0l-.21.631a3.55 3.55 0 0 1-1.82 2.072l-.011.005a.5.5 0 0 0-.001.9l.012.005a3.55 3.55 0 0 1 1.82 2.072l.21.631a.5.5 0 0 0 .948 0l.22-.659a3.55 3.55 0 0 1 1.78-2.052.5.5 0 0 0 0-.894 3.55 3.55 0 0 1-1.78-2.052zm-18 4.5a.5.5 0 0 0-.948 0l-.21.631a3.55 3.55 0 0 1-1.82 2.072L.485 7.8a.5.5 0 0 0-.001.9l.012.005a3.55 3.55 0 0 1 1.82 2.072l.21.631a.5.5 0 0 0 .948 0l.22-.659a3.55 3.55 0 0 1 1.78-2.052.5.5 0 0 0 0-.894 3.55 3.55 0 0 1-1.78-2.052z" fill="#FF5A22"/><path fill-rule="evenodd" clip-rule="evenodd" d="M11.457 12.943a2.1 2.1 0 0 0-.865.361c-.426.312-.703.8-.71 1.43a1.66 1.66 0 0 0 .612 1.342c.34.285.778.455 1.15.586l.047.014.128.044c.37.128.675.233.919.389a.9.9 0 0 1 .286.27c.055.09.095.21.094.388-.003.312-.127.505-.3.631-.19.14-.47.219-.782.209a1.44 1.44 0 0 1-.805-.26.69.69 0 0 1-.297-.57.5.5 0 1 0-1 0c0 .596.29 1.062.693 1.367.269.203.588.337.917.407v.693a.5.5 0 1 0 1 0v-.677a2.1 2.1 0 0 0 .864-.362c.426-.311.704-.799.71-1.429a1.7 1.7 0 0 0-.24-.918 1.86 1.86 0 0 0-.602-.592c-.355-.227-.803-.38-1.175-.507l-.25-.085c-.31-.115-.55-.226-.716-.365-.159-.133-.255-.292-.252-.566.003-.312.127-.505.3-.632.19-.139.47-.218.782-.208.311.01.603.108.805.26.19.144.297.33.297.57a.5.5 0 1 0 1 0c0-.596-.29-1.062-.694-1.367a2.3 2.3 0 0 0-.916-.407v-.672a.5.5 0 1 0-1 0z" fill="#101828"/></g><defs><clipPath id="a"><path fill="#fff" d="M0 0h24v24H0z"/></clipPath></defs></svg>