<svg width="64" height="64" viewBox="0 0 64 64" fill="none" xmlns="http://www.w3.org/2000/svg"><path d="M43.2 43.9v18.3L32 58.4l-11.2 3.8V43.9" fill="url(#a)"/><path d="M43.2 63.6c-.2 0-.3 0-.5-.1L32 60l-10.8 3.6c-.5.2-1 .1-1.4-.2q-.6-.45-.6-1.2V43.9c0-.8.7-1.5 1.5-1.5s1.5.7 1.5 1.5V60l9.3-3.1q.45-.15.9 0l9.3 3.1V43.9c0-.8.7-1.5 1.5-1.5s1.5.7 1.5 1.5v18.3q0 .75-.6 1.2c-.2.1-.5.2-.9.2" fill="url(#b)"/><path d="M54.5 24.4c0-1.1-.3-2.2-.9-3.1-1-1.5-1.5-3.3-1.3-5 .1-1.1-.2-2.2-.7-3.1-.6-1-1.4-1.7-2.4-2.2-1.6-.8-2.9-2.1-3.7-3.7-.5-1-1.2-1.8-2.2-2.4s-2.1-.8-3.1-.7c-1.7.1-3.5-.4-5-1.3-.9-.6-2-.9-3.1-.9s-2.2.3-3.1.9c-1.5 1-3.3 1.5-5 1.3-1.1-.1-2.2.2-3.1.7-1 .6-1.7 1.4-2.2 2.4-.8 1.6-2.1 2.9-3.7 3.7-1 .5-1.8 1.2-2.4 2.2s-.8 2.1-.7 3.1c.1 1.7-.4 3.5-1.3 5-.6.9-.9 2-.9 3.1s.3 2.2.9 3.1c1 1.5 1.5 3.3 1.3 5-.1 1.1.2 2.2.7 3.1.6 1 1.4 1.7 2.4 2.2 1.6.8 2.9 2.1 3.7 3.7.5 1 1.2 1.8 2.2 2.4s2.1.8 3.1.7c1.7-.1 3.5.4 5 1.3.9.6 2 .9 3.1.9s2.2-.3 3.1-.9c1.5-1 3.3-1.5 5-1.3 1.1.1 2.2-.2 3.1-.7 1-.6 1.7-1.4 2.2-2.4.8-1.6 2.1-2.9 3.7-3.7 1-.5 1.8-1.2 2.4-2.2s.8-2.1.7-3.1c-.1-1.7.4-3.5 1.3-5 .6-.9.9-2 .9-3.1" fill="#fff"/><path d="M32 48.4c-1.4 0-2.8-.4-3.9-1.2-1.2-.8-2.7-1.2-4.1-1.1s-2.8-.2-4-.9-2.2-1.7-2.8-3-1.7-2.4-3-3-2.3-1.6-3-2.8-1-2.6-.9-4-.3-2.9-1.1-4.1Q8 26.5 8 24.4c0-1.4.4-2.8 1.2-3.9.8-1.2 1.2-2.7 1.1-4.1s.2-2.8.9-4 1.7-2.2 3-2.8 2.4-1.7 3-3 1.6-2.3 2.8-3 2.6-1 4-.9 2.9-.3 4.1-1.1C30.4 0 33.6.1 36 1.6c1.2.8 2.7 1.2 4.1 1.1s2.8.2 4 .9 2.2 1.7 2.8 3 1.7 2.4 3 3 2.3 1.6 3 2.8 1 2.6.9 4 .3 2.9 1.1 4.1q1.2 1.8 1.2 3.9c0 1.4-.4 2.8-1.2 3.9-.8 1.2-1.2 2.7-1.1 4.1s-.2 2.8-.9 4-1.7 2.2-3 2.8-2.4 1.7-3 3-1.6 2.3-2.8 3-2.6 1-4 .9-2.9.3-4.1 1.1-2.6 1.2-4 1.2m-7.6-5.3c1.9 0 3.8.6 5.3 1.6 1.3.9 3.2.9 4.5 0 1.7-1.2 3.8-1.7 5.9-1.6.8.1 1.6-.1 2.3-.5s1.3-1 1.6-1.7c.9-1.9 2.5-3.4 4.3-4.3.7-.4 1.3-.9 1.7-1.6s.6-1.5.5-2.3c-.1-2.1.4-4.2 1.6-5.9.4-.7.7-1.5.7-2.3s-.2-1.6-.7-2.3c-1.2-1.7-1.7-3.8-1.6-5.9.1-.8-.1-1.6-.5-2.3s-1-1.3-1.7-1.6c-1.9-.9-3.4-2.5-4.3-4.3-.4-.7-.9-1.3-1.6-1.7s-1.5-.6-2.3-.5c-2.1.1-4.2-.4-5.9-1.6-1.3-.9-3.2-.9-4.5 0C28 5.5 25.9 6 23.8 5.9c-.8 0-1.6.1-2.3.5s-1.3 1-1.6 1.7c-.9 1.9-2.5 3.4-4.3 4.3-.7.4-1.3.9-1.7 1.6s-.6 1.5-.5 2.3c.1 2.1-.4 4.2-1.6 5.9-.4.7-.7 1.5-.7 2.3s.2 1.6.7 2.3c1.2 1.7 1.7 3.8 1.6 5.9-.1.8.1 1.6.5 2.3s1 1.3 1.7 1.6c1.9.9 3.4 2.5 4.3 4.3.4.7.9 1.3 1.6 1.7s1.5.6 2.3.5z" fill="#344054"/><path d="M32 40.9c-9.1 0-16.5-7.4-16.5-16.5S22.9 7.9 32 7.9s16.5 7.4 16.5 16.5S41.1 40.9 32 40.9m0-30c-7.4 0-13.5 6.1-13.5 13.5S24.6 37.9 32 37.9s13.5-6.1 13.5-13.5S39.4 10.9 32 10.9" fill="#344054"/><defs><linearGradient id="a" x1="32" y1="43.9" x2="32" y2="62.2" gradientUnits="userSpaceOnUse"><stop stop-color="#FF5A22"/><stop offset="1" stop-color="#FFA722"/></linearGradient><linearGradient id="b" x1="31.95" y1="42.4" x2="31.95" y2="63.704" gradientUnits="userSpaceOnUse"><stop stop-color="#FF5A22"/><stop offset="1" stop-color="#FFA722"/></linearGradient></defs></svg>