<svg width="1em" height="1em" viewBox="0 0 24 24" fill="none" xmlns="http://www.w3.org/2000/svg"><g clip-path="url(#a)"><path d="M18.6 11.35c0 .4-.3.7-.7.7s-.7-.3-.7-.7.3-.7.7-.7.7.3.7.7" fill="#101828"/><path d="M18.6 23.8h-2.8c-.2 0-.4-.15-.45-.35L14.5 21H7.65l-.8 2.45a.48.48 0 0 1-.45.35H3.5c-.3 0-.5-.2-.5-.5v-3.75C1.25 18.2.2 16.15.2 13.9c0-1.7.6-3.35 1.75-4.65.2-.2.5-.25.7-.05s.25.5.05.7a6.1 6.1 0 0 0-1.5 4c0 2 .95 3.85 2.6 4.95.15.15.2.3.2.45v3.5h1.95l.8-2.45c.05-.2.25-.35.45-.35h7.6c.2 0 .4.15.45.35l.8 2.45H18v-3.5c0-.15.1-.3.2-.4 1-.7 1.75-1.65 2.2-2.8a.45.45 0 0 1 .3-.3l2-.8v-3.45l-2.35-.4c-.15 0-.25-.1-.35-.25-.35-.6-.8-1.1-1.3-1.55-.15-.1-.2-.3-.15-.45.15-1.25.7-2.45 1.5-3.35h-.6c-1.35 0-2.6.85-3.05 2.15-.1.25-.3.35-.55.3-.35-.05-.75-.1-1.1-.1H10.7c-.3 0-.5-.2-.5-.5s.2-.5.5-.5h4.05c.3 0 .55 0 .85.05.7-1.45 2.2-2.4 3.8-2.4h1.9c.2 0 .4.15.45.35s0 .4-.15.55v.05c-1 .8-1.7 1.95-1.9 3.25.45.45.85.9 1.2 1.45l2.55.45c.25.05.4.25.4.5v4.2c0 .2-.1.4-.3.45l-2.1.85c-.5 1.15-1.25 2.15-2.25 2.9v3.75c-.1.25-.3.5-.6.5" fill="#101828"/><path d="M.2 5.85C.2 9 2.75 11.5 5.85 11.5c3.15 0 5.65-2.55 5.65-5.65S8.95.2 5.85.2.2 2.7.2 5.85" fill="#FF5A22"/><path fill-rule="evenodd" clip-rule="evenodd" d="M5.35 9.15c0 .3.2.5.5.5.25 0 .5-.25.5-.5v-.323c.768-.215 1.227-.87 1.35-1.527.15-.9-.3-1.65-1.15-1.95l-.2-.068v-1.47c.098.044.15.088.15.088.2.2.5.25.7.05s.25-.5.05-.7c-.146-.175-.462-.384-.9-.468V2.6c0-.3-.2-.5-.5-.5s-.5.2-.5.5v.222l-.1.028c-.55.2-1 .65-1.1 1.35-.15.55.05 1.1.45 1.4.201.144.436.271.75.41v1.86c-.2-.036-.351-.114-.6-.27-.25-.15-.55-.1-.7.15s-.1.55.15.7c.419.305.75.406 1.15.438zm0-4.324v-.931a.55.55 0 0 0-.2.405c0 .2 0 .35.1.45q.047.039.1.076m1 1.578V7.73a.9.9 0 0 0 .35-.58c.045-.18.05-.562-.35-.746" fill="#FFD8C6"/></g><defs><clipPath id="a"><path fill="#fff" d="M0 0h24v24H0z"/></clipPath></defs></svg>