<svg width="48" height="48" viewBox="0 0 48 48" fill="none" xmlns="http://www.w3.org/2000/svg"><path fill-rule="evenodd" clip-rule="evenodd" d="M.945 47.481a1 1 0 0 0 1.035-.068l12.675-8.875 13.796 2.418a3.88 3.88 0 0 0 2.895-.644l15.821-11.078a1 1 0 0 0 .246-1.393l-1.276-1.822a3.873 3.873 0 0 0-5.006-1.187l-9.612 4.884a3.87 3.87 0 0 0-3.048-2.735l-11.753-2.06a12.28 12.28 0 0 0-9.162 2.038L.833 31.667a1 1 0 0 0-.427.819v14.108a1 1 0 0 0 .539.887m30.54-15.504 10.563-5.368.023-.012a1.873 1.873 0 0 1 2.428.569l.702 1.003-15.002 10.505a1.88 1.88 0 0 1-1.402.312l-14.204-2.49a1 1 0 0 0-.746.166l-11.44 8.011V33.007l6.296-4.41a10.28 10.28 0 0 1 7.67-1.706l11.752 2.06a1.866 1.866 0 0 1 1.517 2.166 1.883 1.883 0 0 1-2.178 1.524m4.02-.664a3.88 3.88 0 0 1-4.367 2.634l-4.884-.858-2.595-.455a1 1 0 0 1 .345-1.97l2.595.455 4.886.858" fill="#101828"/><path d="M16.748 21.497a4.748 4.748 0 1 1 0-9.497 4.748 4.748 0 0 1 0 9.497" fill="url(#a)"/><path d="M22.748 10.497a4.748 4.748 0 1 1 0-9.497 4.748 4.748 0 0 1 0 9.497" fill="url(#b)"/><path d="M30.205 20.706a4.748 4.748 0 1 1 0-9.497 4.748 4.748 0 0 1 0 9.497" fill="url(#c)"/><defs><linearGradient id="a" x1="16.748" y1="12" x2="16.748" y2="21.497" gradientUnits="userSpaceOnUse"><stop stop-color="#16B364"/><stop offset="1" stop-color="#CDE762"/></linearGradient><linearGradient id="b" x1="22.748" y1="1" x2="22.748" y2="10.497" gradientUnits="userSpaceOnUse"><stop stop-color="#16B364"/><stop offset="1" stop-color="#CDE762"/></linearGradient><linearGradient id="c" x1="30.205" y1="11.21" x2="30.205" y2="20.706" gradientUnits="userSpaceOnUse"><stop stop-color="#16B364"/><stop offset="1" stop-color="#CDE762"/></linearGradient></defs></svg>