<svg width="24" height="24" viewBox="0 0 24 24" fill="none" xmlns="http://www.w3.org/2000/svg"><mask id="a" style="mask-type:luminance" maskUnits="userSpaceOnUse" x="0" y="3" width="24" height="18"><path d="M0 3h24v18H0z" fill="#fff"/></mask><g mask="url(#a)"><path fill-rule="evenodd" clip-rule="evenodd" d="M0 3h24v18H0z" fill="#F2F4F7"/><path fill-rule="evenodd" clip-rule="evenodd" d="M0 14v1.5h24V14zm0 2.75v1.5h24v-1.5zM0 8.5V10h24V8.5zm0 11V21h24v-1.5zm0-8.25v1.5h24v-1.5zM0 3v1.5h24V3zm0 2.75v1.5h24v-1.5z" fill="#D92D20"/><path d="M0 3h15v9.75H0z" fill="#0B70FE"/><path fill-rule="evenodd" clip-rule="evenodd" d="m1.292 5.204-.545.382.184-.68-.484-.43h.632l.212-.555.248.555h.539l-.423.43.163.68zm3 0-.545.382.184-.68-.483-.43h.631l.212-.555.248.555h.539l-.423.43.163.68zm2.455.382.545-.382.526.382-.163-.68.423-.43h-.539l-.248-.555-.212.555h-.631l.483.43zm3.544-.382-.544.382.184-.68-.483-.43h.631l.212-.555.248.555h.539l-.423.43.163.68zM.747 8.587l.545-.383.526.383-.163-.68.423-.43h-.539l-.248-.555-.212.555H.447l.484.43zm3.545-.383-.545.383.184-.68-.483-.43h.631l.212-.555.248.555h.539l-.423.43.163.68zm2.455.383.545-.383.526.383-.163-.68.423-.43h-.539l-.248-.555-.212.555h-.631l.483.43zm3.544-.383-.544.383.184-.68-.483-.43h.631l.212-.555.248.555h.539l-.423.43.163.68zM.747 11.587l.545-.383.526.383-.163-.68.423-.43h-.539l-.248-.555-.212.555H.447l.484.43zm3.545-.383-.545.383.184-.68-.483-.43h.631l.212-.555.248.555h.539l-.423.43.163.679zm2.455.383.545-.383.526.383-.163-.68.423-.43h-.539l-.248-.555-.212.555h-.631l.483.43zm3.544-.383-.544.383.184-.68-.483-.43h.631l.212-.555.248.555h.539l-.423.43.163.679zm2.456-5.617.544-.383.527.383-.163-.68.423-.43h-.539l-.248-.555-.212.555h-.632l.484.43zm.544 2.617-.544.383.184-.68-.484-.43h.632l.212-.555.248.555h.539l-.423.43.163.68zm-.544 3.383.544-.383.527.383-.163-.68.423-.43h-.539l-.248-.555-.212.555h-.632l.484.43zM2.792 6.704l-.545.382.184-.68-.484-.43h.632l.212-.555.248.555h.539l-.423.43.163.68zm2.455.382.545-.382.526.382-.163-.68.423-.43h-.539l-.248-.555-.212.555h-.632l.484.43zm3.545-.382-.545.382.184-.68-.483-.43h.631l.212-.555.248.555h.539l-.423.43.163.68zm-6.545 3.382.545-.382.526.382-.163-.68.423-.43h-.539l-.248-.555-.212.555h-.632l.484.43zm3.545-.382-.545.382.184-.68-.483-.43h.631l.212-.555.248.555h.539l-.423.43.163.68zm2.455.382.545-.382.526.382-.163-.68.423-.43h-.539l-.248-.555-.212.555h-.631l.483.43zm3.544-3.382-.544.382.184-.68-.483-.43h.631l.212-.555.248.555h.539l-.423.43.163.68zm-.544 3.382.544-.382.527.382-.163-.68.423-.43h-.539l-.248-.555-.212.555h-.631l.483.43z" fill="#F2F4F7"/></g></svg>