<svg width="1em" height="1em" viewBox="0 0 48 48" fill="none" xmlns="http://www.w3.org/2000/svg"><path d="M8.656 12.656a1 1 0 0 0 1 1h28.687a1 1 0 1 0 0-2H9.656a1 1 0 0 0-1 1m1 6.625a1 1 0 1 1 0-2h19.125a1 1 0 0 1 0 2z" fill="#101828"/><path fill-rule="evenodd" clip-rule="evenodd" d="M3.031 1.406a1 1 0 0 1 1-1H43.97a1 1 0 0 1 1 1V40.97a1 1 0 0 1-1 1H4.03a1 1 0 0 1-1-1zm36.313 1v3.625h3.625V2.406zm-5.625 3.625h3.625V2.406h-3.625zm-2-3.625v3.625H5.03V2.406zM5.03 8.031V39.97h37.94V8.03z" fill="#101828"/><path d="M30.357 17.887a1 1 0 0 0-1.839 0l-2.812 6.563a1 1 0 0 0-.081.394V43.78a3.82 3.82 0 0 0 3.813 3.813 3.82 3.82 0 0 0 3.812-3.813V24.844a1 1 0 0 0-.08-.394z" fill="url(#a)"/><defs><linearGradient id="a" x1="29.438" y1="17.281" x2="29.438" y2="47.594" gradientUnits="userSpaceOnUse"><stop stop-color="#FF5A22"/><stop offset="1" stop-color="#FFA722"/></linearGradient></defs></svg>