<svg width="1em" height="1em" viewBox="0 0 24 24" fill="none" xmlns="http://www.w3.org/2000/svg"><g clip-path="url(#a)" fill-rule="evenodd" clip-rule="evenodd"><path d="M7.357 10.117c0-.9.728-1.63 1.63-1.63h.377c.901 0 1.63.73 1.63 1.63v3.766c0 .9-.729 1.63-1.63 1.63h-.377c-.902 0-1.63-.73-1.63-1.63zm1.63-.63a.63.63 0 0 0-.63.63v3.766c0 .348.281.63.63.63h.377a.63.63 0 0 0 .63-.63v-3.766a.63.63 0 0 0-.63-.63zm7.379-.947a.5.5 0 0 1 .224.671l-3.013 6.025a.5.5 0 0 1-.894-.447l3.012-6.025a.5.5 0 0 1 .671-.224m-3.236-.052a.5.5 0 0 1 .5.5v.376a.5.5 0 0 1-1 0v-.376a.5.5 0 0 1 .5-.5m3.013 5.648a.5.5 0 0 1 .5.5v.377a.5.5 0 0 1-1 0v-.377a.5.5 0 0 1 .5-.5" fill="#101828"/><path d="M23.297 12c0 6.24-5.058 11.297-11.297 11.297S.703 18.239.703 12 5.761.703 12 .703 23.297 5.761 23.297 12m-3.013 0a8.284 8.284 0 1 1-16.568 0 8.284 8.284 0 0 1 16.568 0" fill="#FF5A22"/></g><defs><clipPath id="a"><path fill="#fff" d="M0 0h24v24H0z"/></clipPath></defs></svg>